<?xml version="1.0" encoding="UTF-8" standalone="no"?>
<!-- Created with Inkscape (http://www.inkscape.org/) -->

<svg
   width="400"
   height="400"
   viewBox="0 0 105.83333 105.83333"
   version="1.1"
   id="svg1"
   inkscape:version="1.3 (0e150ed6c4, 2023-07-21)"
   sodipodi:docname="logo.svg"
   xmlns:inkscape="http://www.inkscape.org/namespaces/inkscape"
   xmlns:sodipodi="http://sodipodi.sourceforge.net/DTD/sodipodi-0.dtd"
   xmlns:xlink="http://www.w3.org/1999/xlink"
   xmlns="http://www.w3.org/2000/svg"
   xmlns:svg="http://www.w3.org/2000/svg">
  <sodipodi:namedview
     id="namedview1"
     pagecolor="#ffffff"
     bordercolor="#666666"
     borderopacity="1.0"
     inkscape:showpageshadow="2"
     inkscape:pageopacity="0.0"
     inkscape:pagecheckerboard="0"
     inkscape:deskcolor="#d1d1d1"
     inkscape:document-units="mm"
     showgrid="true"
     inkscape:zoom="1.4538742"
     inkscape:cx="110.7386"
     inkscape:cy="204.96959"
     inkscape:window-width="2560"
     inkscape:window-height="1379"
     inkscape:window-x="1920"
     inkscape:window-y="0"
     inkscape:window-maximized="1"
     inkscape:current-layer="layer1">
    <inkscape:grid
       id="grid1"
       units="px"
       originx="0"
       originy="0"
       spacingx="0.26458333"
       spacingy="0.26458333"
       empcolor="#0099e5"
       empopacity="0.30196078"
       color="#0099e5"
       opacity="0.14901961"
       empspacing="5"
       dotted="false"
       gridanglex="30"
       gridanglez="30"
       visible="true" />
  </sodipodi:namedview>
  <defs
     id="defs1">
    <linearGradient
       id="linearGradient14"
       inkscape:collect="always">
      <stop
         style="stop-color:#8af89f;stop-opacity:1;"
         offset="0.3382377"
         id="stop11" />
      <stop
         style="stop-color:#38f25a;stop-opacity:1;"
         offset="0.5258981"
         id="stop12" />
      <stop
         style="stop-color:#6ef687;stop-opacity:1;"
         offset="0.70743001"
         id="stop13" />
      <stop
         style="stop-color:#23f149;stop-opacity:1;"
         offset="1"
         id="stop14" />
    </linearGradient>
    <linearGradient
       id="linearGradient5"
       inkscape:collect="always">
      <stop
         style="stop-color:#c1c1c1;stop-opacity:1;"
         offset="0.3382377"
         id="stop7" />
      <stop
         style="stop-color:#959595;stop-opacity:1;"
         offset="0.5258981"
         id="stop8" />
      <stop
         style="stop-color:#b2b2b2;stop-opacity:1;"
         offset="0.70743001"
         id="stop9" />
      <stop
         style="stop-color:#8a8a8a;stop-opacity:1;"
         offset="1"
         id="stop6" />
    </linearGradient>
    <linearGradient
       inkscape:collect="always"
       xlink:href="#linearGradient5"
       id="linearGradient6"
       x1="1.1906039"
       y1="55.249333"
       x2="40.903961"
       y2="55.249333"
       gradientUnits="userSpaceOnUse"
       gradientTransform="rotate(-45,46.235605,42.626789)" />
    <linearGradient
       inkscape:collect="always"
       xlink:href="#linearGradient14"
       id="linearGradient11"
       x1="8.5880232"
       y1="28.770418"
       x2="48.542435"
       y2="28.770418"
       gradientUnits="userSpaceOnUse"
       gradientTransform="translate(38.90352,13.562914)" />
  </defs>
  <g
     inkscape:label="Layer 1"
     inkscape:groupmode="layer"
     id="layer1">
    <path
       id="path2"
       style="fill:url(#linearGradient11);stroke:#000000;stroke-width:0.264583;stroke-linecap:round;stroke-linejoin:round;stroke-miterlimit:1;stroke-opacity:1"
       d="M 83.766586,30.03968 C 76.460327,17.384867 60.278643,13.048997 47.62383,20.355258 l 0.07183,0.124413 c 6.109655,-2.747032 13.307517,-0.446087 16.690803,5.335563 3.359319,5.826111 1.765137,13.249271 -3.690046,17.182409 v 0 c -6.193949,3.652311 -8.10304,11.937012 -4.478872,18.223209 3.631942,6.281708 11.600255,8.491934 17.860225,4.953975 l 0.0044,0.0076 c 0.02566,-0.01481 0.04989,-0.03111 0.07548,-0.046 0.0093,-0.0046 0.0186,-0.0091 0.02791,-0.01369 0.205571,-0.119312 0.407833,-0.244238 0.60655,-0.37466 12.100365,-7.494787 16.141234,-23.295236 8.974479,-35.708418 z"
       sodipodi:nodetypes="scccccccccccs" />
    <path
       id="path2-4"
       style="fill:url(#linearGradient6);stroke:#000000;stroke-width:0.264583;stroke-linecap:round;stroke-linejoin:round;stroke-miterlimit:1;stroke-opacity:1"
       d="m 23.403028,83.310345 c 10.332611,10.332613 27.085122,10.332615 37.417734,10e-7 L 60.719178,83.208762 C 55.52869,87.443487 47.980559,87.083889 43.216156,82.374903 38.463394,77.616767 38.082001,70.03394 42.333332,64.822915 v 0 C 47.370939,59.691942 47.070741,51.195426 41.943076,46.06143 36.809064,40.933781 28.540216,40.861219 23.409241,45.898823 l -0.0062,-0.0062 c -0.02096,0.02095 -0.04013,0.04296 -0.061,0.06397 -0.0078,0.0068 -0.0156,0.01362 -0.02342,0.02045 -0.167687,0.168452 -0.330723,0.341471 -0.488914,0.518881 -9.748239,10.371233 -9.561959,26.679149 0.573362,36.814468 z"
       sodipodi:nodetypes="scccccccccccs" />
  </g>
</svg>
